<svg width="128" height="128" viewBox="0 0 128 128" fill="none" xmlns="http://www.w3.org/2000/svg">
<g clip-path="url(#clip0_719_14)">
<mask id="mask0_719_14" style="mask-type:alpha" maskUnits="userSpaceOnUse" x="0" y="0" width="128" height="128">
<path d="M113.778 0H14.2222C6.36751 0 0 6.36751 0 14.2222V113.778C0 121.632 6.36751 128 14.2222 128H113.778C121.632 128 128 121.632 128 113.778V14.2222C128 6.36751 121.632 0 113.778 0Z" fill="#181818"/>
</mask>
<g mask="url(#mask0_719_14)">
<path d="M113.778 0H14.2222C6.36751 0 0 6.36751 0 14.2222V113.778C0 121.632 6.36751 128 14.2222 128H113.778C121.632 128 128 121.632 128 113.778V14.2222C128 6.36751 121.632 0 113.778 0Z" fill="#181818"/>
<path d="M39 57C48.9411 57 57 48.9411 57 39C57 29.0589 48.9411 21 39 21C29.0589 21 21 29.0589 21 39C21 48.9411 29.0589 57 39 57Z" fill="#FFDD55"/>
<path d="M128 85.4545L92.375 50L14 128" fill="#8EEBFF"/>
<path d="M128 85.5V128H14L92.5 50L128 85.5Z" fill="#11FFAA"/>
</g>
</g>
<defs>
<clipPath id="clip0_719_14">
<rect width="128" height="128" fill="white"/>
</clipPath>
</defs>
</svg>
